<svg xmlns="http://www.w3.org/2000/svg" xmlns:xlink="http://www.w3.org/1999/xlink" version="1.1" class="marks" width="661" height="453" viewBox="0 0 661 453"><g fill="none" stroke-miterlimit="10" transform="translate(56,16)"><g class="mark-group role-frame root" role="graphics-object" aria-roledescription="group mark container"><g transform="translate(0,0)"><path class="background" aria-hidden="true" d="M0,0h600v400h-600Z"/><g><g class="mark-group role-axis" role="graphics-symbol" aria-roledescription="axis" aria-label="X-axis titled 'day' for a discrete scale with 25 values: 1, 2, 3, 4, 5, ending with 25"><g transform="translate(0.5,400.5)"><path class="background" aria-hidden="true" d="M0,0h0v0h0Z" pointer-events="none"/><g><g class="mark-rule role-axis-tick" pointer-events="none"><line transform="translate(12,0)" x2="0" y2="5" stroke="#888" stroke-width="1" opacity="1"/><line transform="translate(36,0)" x2="0" y2="5" stroke="#888" stroke-width="1" opacity="1"/><line transform="translate(60,0)" x2="0" y2="5" stroke="#888" stroke-width="1" opacity="1"/><line transform="translate(84,0)" x2="0" y2="5" stroke="#888" stroke-width="1" opacity="1"/><line transform="translate(108,0)" x2="0" y2="5" stroke="#888" stroke-width="1" opacity="1"/><line transform="translate(132,0)" x2="0" y2="5" stroke="#888" stroke-width="1" opacity="1"/><line transform="translate(156,0)" x2="0" y2="5" stroke="#888" stroke-width="1" opacity="1"/><line transform="translate(180,0)" x2="0" y2="5" stroke="#888" stroke-width="1" opacity="1"/><line transform="translate(204,0)" x2="0" y2="5" stroke="#888" stroke-width="1" opacity="1"/><line transform="translate(228,0)" x2="0" y2="5" stroke="#888" stroke-width="1" opacity="1"/><line transform="translate(252,0)" x2="0" y2="5" stroke="#888" stroke-width="1" opacity="1"/><line transform="translate(276,0)" x2="0" y2="5" stroke="#888" stroke-width="1" opacity="1"/><line transform="translate(300,0)" x2="0" y2="5" stroke="#888" stroke-width="1" opacity="1"/><line transform="translate(323,0)" x2="0" y2="5" stroke="#888" stroke-width="1" opacity="1"/><line transform="translate(347,0)" x2="0" y2="5" stroke="#888" stroke-width="1" opacity="1"/><line transform="translate(371,0)" x2="0" y2="5" stroke="#888" stroke-width="1" opacity="1"/><line transform="translate(395,0)" x2="0" y2="5" stroke="#888" stroke-width="1" opacity="1"/><line transform="translate(419,0)" x2="0" y2="5" stroke="#888" stroke-width="1" opacity="1"/><line transform="translate(443,0)" x2="0" y2="5" stroke="#888" stroke-width="1" opacity="1"/><line transform="translate(467,0)" x2="0" y2="5" stroke="#888" stroke-width="1" opacity="1"/><line transform="translate(491,0)" x2="0" y2="5" stroke="#888" stroke-width="1" opacity="1"/><line transform="translate(515,0)" x2="0" y2="5" stroke="#888" stroke-width="1" opacity="1"/><line transform="translate(539,0)" x2="0" y2="5" stroke="#888" stroke-width="1" opacity="1"/><line transform="translate(563,0)" x2="0" y2="5" stroke="#888" stroke-width="1" opacity="1"/><line transform="translate(587,0)" x2="0" y2="5" stroke="#888" stroke-width="1" opacity="1"/></g><g class="mark-text role-axis-label" pointer-events="none"><text text-anchor="middle" transform="translate(12.074850299401213,15)" font-family="sans-serif" font-size="10px" fill="#000" opacity="1">1</text><text text-anchor="middle" transform="translate(36.02694610778445,15)" font-family="sans-serif" font-size="10px" fill="#000" opacity="1">2</text><text text-anchor="middle" transform="translate(59.97904191616768,15)" font-family="sans-serif" font-size="10px" fill="#000" opacity="1">3</text><text text-anchor="middle" transform="translate(83.93113772455092,15)" font-family="sans-serif" font-size="10px" fill="#000" opacity="1">4</text><text text-anchor="middle" transform="translate(107.88323353293416,15)" font-family="sans-serif" font-size="10px" fill="#000" opacity="1">5</text><text text-anchor="middle" transform="translate(131.8353293413174,15)" font-family="sans-serif" font-size="10px" fill="#000" opacity="1">6</text><text text-anchor="middle" transform="translate(155.78742514970062,15)" font-family="sans-serif" font-size="10px" fill="#000" opacity="1">7</text><text text-anchor="middle" transform="translate(179.73952095808386,15)" font-family="sans-serif" font-size="10px" fill="#000" opacity="1">8</text><text text-anchor="middle" transform="translate(203.6916167664671,15)" font-family="sans-serif" font-size="10px" fill="#000" opacity="1">9</text><text text-anchor="middle" transform="translate(227.64371257485033,15)" font-family="sans-serif" font-size="10px" fill="#000" opacity="1">10</text><text text-anchor="middle" transform="translate(251.59580838323356,15)" font-family="sans-serif" font-size="10px" fill="#000" opacity="1">11</text><text text-anchor="middle" transform="translate(275.5479041916168,15)" font-family="sans-serif" font-size="10px" fill="#000" opacity="1">12</text><text text-anchor="middle" transform="translate(299.5,15)" font-family="sans-serif" font-size="10px" fill="#000" opacity="1">13</text><text text-anchor="middle" transform="translate(323.4520958083832,15)" font-family="sans-serif" font-size="10px" fill="#000" opacity="1">14</text><text text-anchor="middle" transform="translate(347.40419161676647,15)" font-family="sans-serif" font-size="10px" fill="#000" opacity="1">15</text><text text-anchor="middle" transform="translate(371.35628742514973,15)" font-family="sans-serif" font-size="10px" fill="#000" opacity="1">16</text><text text-anchor="middle" transform="translate(395.30838323353294,15)" font-family="sans-serif" font-size="10px" fill="#000" opacity="1">17</text><text text-anchor="middle" transform="translate(419.26047904191614,15)" font-family="sans-serif" font-size="10px" fill="#000" opacity="1">18</text><text text-anchor="middle" transform="translate(443.2125748502994,15)" font-family="sans-serif" font-size="10px" fill="#000" opacity="1">19</text><text text-anchor="middle" transform="translate(467.16467065868267,15)" font-family="sans-serif" font-size="10px" fill="#000" opacity="1">20</text><text text-anchor="middle" transform="translate(491.1167664670659,15)" font-family="sans-serif" font-size="10px" fill="#000" opacity="1">21</text><text text-anchor="middle" transform="translate(515.0688622754491,15)" font-family="sans-serif" font-size="10px" fill="#000" opacity="1">22</text><text text-anchor="middle" transform="translate(539.0209580838324,15)" font-family="sans-serif" font-size="10px" fill="#000" opacity="1">23</text><text text-anchor="middle" transform="translate(562.9730538922156,15)" font-family="sans-serif" font-size="10px" fill="#000" opacity="1">24</text><text text-anchor="middle" transform="translate(586.9251497005988,15)" font-family="sans-serif" font-size="10px" fill="#000" opacity="1">25</text></g><g class="mark-rule role-axis-domain" pointer-events="none"><line transform="translate(0,0)" x2="600" y2="0" stroke="#888" stroke-width="1" opacity="1"/></g><g class="mark-text role-axis-title" pointer-events="none"><text text-anchor="middle" transform="translate(300,30)" font-family="sans-serif" font-size="11px" font-weight="bold" fill="#000" opacity="1">day</text></g></g><path class="foreground" aria-hidden="true" d="" pointer-events="none" display="none"/></g></g><g class="mark-group role-axis" role="graphics-symbol" aria-roledescription="axis" aria-label="Y-axis titled 'ms' for a linear scale with values from 0 to 1,000"><g transform="translate(0.5,0.5)"><path class="background" aria-hidden="true" d="M0,0h0v0h0Z" pointer-events="none"/><g><g class="mark-rule role-axis-tick" pointer-events="none"><line transform="translate(0,400)" x2="-5" y2="0" stroke="#888" stroke-width="1" opacity="1"/><line transform="translate(0,360)" x2="-5" y2="0" stroke="#888" stroke-width="1" opacity="1"/><line transform="translate(0,320)" x2="-5" y2="0" stroke="#888" stroke-width="1" opacity="1"/><line transform="translate(0,280)" x2="-5" y2="0" stroke="#888" stroke-width="1" opacity="1"/><line transform="translate(0,240)" x2="-5" y2="0" stroke="#888" stroke-width="1" opacity="1"/><line transform="translate(0,200)" x2="-5" y2="0" stroke="#888" stroke-width="1" opacity="1"/><line transform="translate(0,160)" x2="-5" y2="0" stroke="#888" stroke-width="1" opacity="1"/><line transform="translate(0,120)" x2="-5" y2="0" stroke="#888" stroke-width="1" opacity="1"/><line transform="translate(0,80)" x2="-5" y2="0" stroke="#888" stroke-width="1" opacity="1"/><line transform="translate(0,40)" x2="-5" y2="0" stroke="#888" stroke-width="1" opacity="1"/><line transform="translate(0,0)" x2="-5" y2="0" stroke="#888" stroke-width="1" opacity="1"/></g><g class="mark-text role-axis-label" pointer-events="none"><text text-anchor="end" transform="translate(-7,403)" font-family="sans-serif" font-size="10px" fill="#000" opacity="1">0</text><text text-anchor="end" transform="translate(-7,363)" font-family="sans-serif" font-size="10px" fill="#000" opacity="1">100</text><text text-anchor="end" transform="translate(-7,323)" font-family="sans-serif" font-size="10px" fill="#000" opacity="1">200</text><text text-anchor="end" transform="translate(-7,283)" font-family="sans-serif" font-size="10px" fill="#000" opacity="1">300</text><text text-anchor="end" transform="translate(-7,243)" font-family="sans-serif" font-size="10px" fill="#000" opacity="1">400</text><text text-anchor="end" transform="translate(-7,203)" font-family="sans-serif" font-size="10px" fill="#000" opacity="1">500</text><text text-anchor="end" transform="translate(-7,163)" font-family="sans-serif" font-size="10px" fill="#000" opacity="1">600</text><text text-anchor="end" transform="translate(-7,123.00000000000001)" font-family="sans-serif" font-size="10px" fill="#000" opacity="1">700</text><text text-anchor="end" transform="translate(-7,82.99999999999999)" font-family="sans-serif" font-size="10px" fill="#000" opacity="1">800</text><text text-anchor="end" transform="translate(-7,42.99999999999999)" font-family="sans-serif" font-size="10px" fill="#000" opacity="1">900</text><text text-anchor="end" transform="translate(-7,3)" font-family="sans-serif" font-size="10px" fill="#000" opacity="1">1,000</text></g><g class="mark-rule role-axis-domain" pointer-events="none"><line transform="translate(0,400)" x2="0" y2="-400" stroke="#888" stroke-width="1" opacity="1"/></g><g class="mark-text role-axis-title" pointer-events="none"><text text-anchor="middle" transform="translate(-39.64999961853027,200) rotate(-90) translate(0,-2)" font-family="sans-serif" font-size="11px" font-weight="bold" fill="#000" opacity="1">ms</text></g></g><path class="foreground" aria-hidden="true" d="" pointer-events="none" display="none"/></g></g><g class="mark-rect role-mark" role="graphics-symbol" aria-roledescription="rect mark container"><path d="M1.1976047904191773,400h22.75449101796407v0h-22.75449101796407Z" fill="steelblue"/><path d="M25.14970059880241,400h22.75449101796407v0h-22.75449101796407Z" fill="steelblue"/><path d="M49.101796407185645,400h22.75449101796407v0h-22.75449101796407Z" fill="steelblue"/><path d="M73.05389221556888,398.8h22.75449101796407v1.1999999999999886h-22.75449101796407Z" fill="steelblue"/><path d="M97.00598802395211,397.6h22.75449101796407v2.3999999999999773h-22.75449101796407Z" fill="steelblue"/><path d="M120.95808383233535,400h22.75449101796407v0h-22.75449101796407Z" fill="steelblue"/><path d="M144.91017964071858,399.2h22.75449101796407v0.8000000000000114h-22.75449101796407Z" fill="steelblue"/><path d="M168.86227544910182,400h22.75449101796407v0h-22.75449101796407Z" fill="steelblue"/><path d="M192.81437125748505,398.4h22.75449101796407v1.6000000000000227h-22.75449101796407Z" fill="steelblue"/><path d="M216.76646706586828,400h22.75449101796407v0h-22.75449101796407Z" fill="steelblue"/><path d="M240.71856287425152,399.6h22.75449101796407v0.39999999999997726h-22.75449101796407Z" fill="steelblue"/><path d="M264.6706586826348,383.59999999999997h22.75449101796407v16.400000000000034h-22.75449101796407Z" fill="steelblue"/><path d="M288.622754491018,399.6h22.75449101796407v0.39999999999997726h-22.75449101796407Z" fill="steelblue"/><path d="M312.5748502994012,400h22.75449101796407v0h-22.75449101796407Z" fill="steelblue"/><path d="M336.52694610778445,378.4h22.75449101796407v21.600000000000023h-22.75449101796407Z" fill="steelblue"/><path d="M360.4790419161677,400h22.75449101796407v0h-22.75449101796407Z" fill="steelblue"/><path d="M384.4311377245509,400h22.75449101796407v0h-22.75449101796407Z" fill="steelblue"/><path d="M408.3832335329341,383.59999999999997h22.75449101796407v16.400000000000034h-22.75449101796407Z" fill="steelblue"/><path d="M432.3353293413174,397.2h22.75449101796407v2.8000000000000114h-22.75449101796407Z" fill="steelblue"/><path d="M456.28742514970065,364.40000000000003h22.75449101796407v35.599999999999966h-22.75449101796407Z" fill="steelblue"/><path d="M480.23952095808386,390.8h22.75449101796407v9.199999999999989h-22.75449101796407Z" fill="steelblue"/><path d="M504.19161676646706,393.6h22.75449101796407v6.399999999999977h-22.75449101796407Z" fill="steelblue"/><path d="M528.1437125748504,308.40000000000003h22.75449101796407v91.59999999999997h-22.75449101796407Z" fill="steelblue"/><path d="M552.0958083832336,400h22.75449101796407v0h-22.75449101796407Z" fill="steelblue"/><path d="M576.0479041916168,345.2h22.75449101796407v54.80000000000001h-22.75449101796407Z" fill="steelblue"/></g><g class="mark-text role-mark" role="graphics-object" aria-roledescription="text mark container"><text text-anchor="middle" transform="translate(0,-2)" font-family="sans-serif" font-size="11px" fill="#333" fill-opacity="1"/></g><g class="mark-text role-mark" role="graphics-object" aria-roledescription="text mark container"><text text-anchor="middle" transform="translate(0,-2)" font-family="sans-serif" font-size="11px" fill="#333" fill-opacity="1"/></g><g class="mark-line role-mark" role="graphics-symbol" aria-roledescription="line mark container"><path d="M1.1976047904191773,400L25.14970059880241,400L49.101796407185645,400L73.05389221556888,398.8L97.00598802395211,396L120.95808383233535,396L144.91017964071858,395.2L168.86227544910182,395.2L192.81437125748505,393.2L216.76646706586828,393.2L240.71856287425152,392.4L264.6706586826348,376L288.622754491018,375.6L312.5748502994012,375.2L336.52694610778445,353.6L360.4790419161677,353.2L384.4311377245509,353.2L408.3832335329341,336.4L432.3353293413174,333.59999999999997L456.28742514970065,298L480.23952095808386,288.4L504.19161676646706,282L528.1437125748504,190.39999999999998L552.0958083832336,190L576.0479041916168,134.79999999999998" stroke="red" stroke-width="1"/></g></g><path class="foreground" aria-hidden="true" d="" display="none"/></g></g></g></svg>